HIERARCHY
ROOT Hips
{
	OFFSET 0.000000 8.830580 0.000000
	CHANNELS 6 Xposition Yposition Zposition Zrotation Yrotation Xrotation 
	JOINT Spine
	{
		OFFSET 0.000000 0.010000 0.000000
		CHANNELS 3 Zrotation Yrotation Xrotation
		JOINT Spine1
		{
			OFFSET 0.000000 2.459130 0.000000
			CHANNELS 3 Zrotation Yrotation Xrotation
			JOINT Neck
			{
				OFFSET 0.000000 2.484630 0.000000
				CHANNELS 3 Zrotation Yrotation Xrotation
				JOINT Head_virtual
				{
					OFFSET 0.000000 0.000000 0.000000
					CHANNELS 3 Zrotation Yrotation Xrotation
					JOINT Head
					{
						OFFSET 0.000000 0.927525 0.000000
						CHANNELS 3 Zrotation Yrotation Xrotation
						End Site
						{
							OFFSET 0.000000 0.000000 0.000000
						}
					}
				}
				JOINT LeftUpArm_virtual
				{
					OFFSET 0.000000 0.000000 0.000000
					CHANNELS 3 Zrotation Yrotation Xrotation
					JOINT LeftUpArm
					{
						OFFSET 1.248820 0.000000 0.000000
						CHANNELS 3 Zrotation Yrotation Xrotation
						JOINT LeftForeArm
						{
							OFFSET 2.597580 0.000000 0.000000
							CHANNELS 3 Zrotation Yrotation Xrotation
							JOINT LeftHand
							{
								OFFSET 2.455420 0.000000 0.000000
								CHANNELS 3 Zrotation Yrotation Xrotation
								End Site
								{
									OFFSET 0.000000 0.000000 0.000000
								}
							}
						}
					}
				}
				JOINT RightUpArm_virtual
				{
					OFFSET -0.000000 -0.000000 -0.000000
					CHANNELS 3 Zrotation Yrotation Xrotation
					JOINT RightUpArm
					{
						OFFSET -1.248820 -0.000000 -0.000000
						CHANNELS 3 Zrotation Yrotation Xrotation
						JOINT RightForeArm
						{
							OFFSET -2.597580 -0.000000 -0.000000
							CHANNELS 3 Zrotation Yrotation Xrotation
							JOINT RightHand
							{
								OFFSET -2.455420 -0.000000 -0.000000
								CHANNELS 3 Zrotation Yrotation Xrotation
								End Site
								{
									OFFSET 0.000000 0.000000 0.000000
								}
							}
						}
					}
				}
			}
		}
	}
	JOINT LeftUpLeg
	{
		OFFSET 1.271939 0.000000 0.000000
		CHANNELS 3 Zrotation Yrotation Xrotation
		JOINT LeftLowLeg
		{
			OFFSET 0.000000 -4.342910 0.000000
			CHANNELS 3 Zrotation Yrotation Xrotation
			JOINT LeftFoot
			{
				OFFSET 0.000000 -4.487670 0.000000
				CHANNELS 3 Zrotation Yrotation Xrotation
				JOINT LeftToeBase
				{
					OFFSET 0.000000 0.000000 1.515070
					CHANNELS 3 Zrotation Yrotation Xrotation
					End Site
					{
						OFFSET 0.000000 0.000000 0.000000
					}
				}
			}
		}
	}
	JOINT RightUpLeg
	{
		OFFSET -1.271939 0.000000 0.000000
		CHANNELS 3 Zrotation Yrotation Xrotation
		JOINT RightLowLeg
		{
			OFFSET 0.000000 -4.342910 0.000000
			CHANNELS 3 Zrotation Yrotation Xrotation
			JOINT RightFoot
			{
				OFFSET 0.000000 -4.487670 0.000000
				CHANNELS 3 Zrotation Yrotation Xrotation
				JOINT RightToeBase
				{
					OFFSET 0.000000 0.000000 1.515070
					CHANNELS 3 Zrotation Yrotation Xrotation
					End Site
					{
						OFFSET 0.000000 0.000000 0.000000
					}
				}
			}
		}
	}
}
MOTION
Frames: 10
Frame Time: 0.041667
-12.878384 8.844384 34.462278 -178.553875 -32.900204 -175.823065 3.784780 -2.625251 -16.096352 0.307768 3.497503 19.358791 0.000000 0.000000 0.000000 1.632134 2.190258 3.277558 -9.022521 -1.826408 -88.531186 -23.077200 3.171230 1.612000 -25.976999 -11.492900 -7.174970 -180.000000 -50.873993 180.000000 -22.206400 39.620701 10.342000 27.308800 -4.006480 1.513000 29.677601 9.748000 14.349300 -180.000000 54.887001 -180.000000 3.791980 -10.775300 15.666800 8.765526 -17.105089 -21.448561 0.000000 0.000000 32.025902 -24.660659 -0.692807 -4.846455 0.000000 0.000000 -22.920070 7.738936 5.781403 -11.033320 0.000000 0.000000 22.434601 28.091685 -10.718060 -14.084348 0.000000 0.000000 -16.408620 
-12.910644 8.852591 34.457694 -178.942522 -32.583462 -175.357686 3.612348 -2.589453 -16.460786 -0.084678 3.551638 19.082163 0.000000 0.000000 0.000000 2.165751 2.448539 3.526561 -8.971091 -1.322037 -88.622748 -22.936600 3.115700 1.597992 -25.587601 -11.668200 -7.366400 -180.000000 -50.817001 180.000000 -22.990299 39.817299 9.649270 27.580999 -4.014600 1.380005 29.697800 9.610130 14.485800 -180.000000 55.125999 180.000000 5.260650 -10.902700 14.211300 8.097725 -17.417111 -20.995844 0.000000 0.000000 30.932899 -22.426866 1.778000 -4.530685 0.000000 0.000000 -23.033420 7.223330 5.943301 -11.177951 0.000000 0.000000 22.471600 28.015940 -10.604305 -14.052802 0.000000 0.000000 -16.530450 
-12.944255 8.860155 34.453736 -179.261991 -32.221362 -175.025603 3.429920 -2.526436 -16.748960 -0.383105 3.659550 18.836451 0.000000 0.000000 0.000000 2.668866 2.601188 3.651606 -8.942558 -0.890313 -88.624913 -22.839600 3.021790 1.553986 -25.293699 -11.680100 -7.557640 -180.000000 -50.779999 180.000000 -22.633301 39.207100 9.474260 27.653700 -3.965320 1.502014 29.799700 9.563570 14.377700 180.000000 55.153999 180.000000 6.693300 -11.442000 13.533900 7.509764 -17.620231 -20.598220 0.000000 0.000000 30.432301 -21.783556 3.291082 -4.837197 0.000000 0.000000 -22.582120 6.760822 6.178740 -11.225751 0.000000 0.000000 22.496401 28.101777 -10.471197 -14.090277 0.000000 0.000000 -16.477620 
-12.977246 8.867489 34.451113 -179.564261 -31.809519 -174.810715 3.238038 -2.402524 -16.871574 -0.750642 3.791090 18.516184 0.000000 0.000000 0.000000 3.210517 2.660384 3.790816 -8.932174 -0.513641 -88.665732 -22.765301 2.973560 1.562988 -25.159000 -11.853900 -7.897190 180.000000 -50.737000 -180.000000 -22.351500 38.658699 9.202040 27.748400 -4.016260 1.334991 29.884199 9.551970 14.442700 180.000000 55.210999 180.000000 8.837790 -11.826800 12.840300 6.982622 -17.610503 -20.221936 0.000000 0.000000 30.034901 -21.416259 4.218576 -4.687128 0.000000 0.000000 -22.068590 6.333359 6.445794 -11.203430 0.000000 0.000000 22.571400 28.550392 -10.187572 -14.250101 0.000000 0.000000 -16.207680 
-13.011730 8.874139 34.447030 -179.815502 -31.265810 -174.703236 3.068867 -2.176969 -16.974721 -1.115771 3.992805 18.279230 0.000000 0.000000 0.000000 3.809930 2.584433 3.900603 -9.008095 -0.173644 -88.625524 -22.724199 2.928850 1.532013 -25.186199 -12.087600 -8.195140 180.000000 -50.740997 -180.000000 -21.903900 38.162498 9.122150 27.769100 -4.050680 1.342987 29.955799 9.643610 14.335400 180.000000 55.232002 180.000000 10.781500 -12.158800 13.161200 6.486888 -17.130508 -19.619905 0.000000 0.000000 29.437500 -21.418757 4.313299 -4.510801 0.000000 0.000000 -21.963340 5.921461 6.815716 -11.133777 0.000000 0.000000 22.696199 28.685697 -10.020181 -14.271599 0.000000 0.000000 -16.172730 
-13.046116 8.879579 34.440565 179.943808 -30.691379 -174.755740 2.863980 -1.980931 -17.014878 -1.453089 4.200959 18.135514 0.000000 0.000000 0.000000 4.161497 2.647482 4.123507 -8.780891 0.058109 -88.664166 -22.715401 2.933810 1.618011 -25.396999 -12.417200 -8.672170 -180.000000 -50.852997 180.000000 -21.667000 37.769600 8.842240 27.717800 -3.986760 1.414001 30.025400 9.773750 14.403300 180.000000 55.290001 180.000000 11.730300 -12.509300 15.178700 5.953128 -16.295964 -18.705729 0.000000 0.000000 28.580999 -21.262059 3.921360 -4.310810 0.000000 0.000000 -21.856780 5.552201 7.139534 -10.942680 0.000000 0.000000 22.901100 28.749134 -9.857363 -14.298277 0.000000 0.000000 -16.149540 
-13.083277 8.884231 34.436076 179.722706 -30.050330 -174.908644 2.718874 -1.683481 -17.001561 -1.864779 4.427493 18.040480 0.000000 0.000000 0.000000 4.627283 2.639007 4.482539 -8.766803 0.313546 -88.737441 -22.819201 2.958760 1.764008 -25.594700 -12.823500 -8.913680 180.000000 -51.117004 180.000000 -20.836399 37.236698 8.633050 27.708599 -3.957920 1.523987 29.972099 10.081700 14.432800 180.000000 55.603996 180.000000 13.882200 -12.749200 13.944100 5.419725 -15.566983 -17.767956 0.000000 0.000000 27.876600 -21.237867 3.527471 -4.178832 0.000000 0.000000 -21.792030 5.171596 7.459677 -10.701224 0.000000 0.000000 23.141300 28.754075 -9.642207 -14.274034 0.000000 0.000000 -16.197220 
-13.121946 8.886800 34.432451 179.563122 -29.467441 -175.046083 2.654893 -1.346519 -17.107569 -2.349510 4.618807 18.046915 0.000000 0.000000 0.000000 5.088515 2.635600 4.938951 -8.676859 0.569074 -88.739265 -22.895700 2.982100 2.010986 -25.884800 -13.312300 -8.756160 180.000000 -51.582993 180.000000 -19.383600 36.243000 8.562960 27.749500 -3.950150 1.553986 29.858200 10.478300 14.764400 -180.000000 56.000000 -180.000000 13.984600 -13.300500 15.060000 4.927102 -14.885700 -17.010441 0.000000 0.000000 27.398001 -21.162302 3.252230 -4.166722 0.000000 0.000000 -21.784940 4.828757 7.767542 -10.520616 0.000000 0.000000 23.407600 28.854306 -9.386102 -14.292945 0.000000 0.000000 -16.237680 
-13.161470 8.888844 34.429869 179.459649 -28.908883 -175.253318 2.622043 -1.005719 -17.310151 -2.840788 4.808986 18.291558 0.000000 0.000000 0.000000 5.767460 2.578095 5.471599 -8.706231 0.936741 -88.758138 -22.968500 3.038270 2.049011 -26.308701 -13.985200 -7.573170 -180.000000 -52.269997 180.000000 -16.545200 34.901798 8.799510 27.730600 -3.862590 1.393005 29.922400 10.770200 15.256900 -180.000000 56.476997 -180.000000 14.431300 -14.380900 16.440300 4.449073 -14.365943 -16.282723 0.000000 0.000000 27.051800 -20.987560 3.255614 -4.282525 0.000000 0.000000 -21.676570 4.538172 8.092812 -10.355245 0.000000 0.000000 23.783300 28.932552 -9.200094 -14.320779 0.000000 0.000000 -16.276940 
-13.202811 8.890798 34.427205 179.326208 -28.444812 -175.513341 2.618547 -0.675563 -17.467453 -3.453764 4.924349 18.510290 0.000000 0.000000 0.000000 6.227603 2.732298 6.273356 -8.455470 1.218844 -89.010792 -23.045601 3.168270 1.666992 -26.862101 -14.576600 -4.608760 -180.000000 -53.049004 180.000000 -10.416200 32.571602 10.869400 27.914301 -3.693190 1.346985 29.807501 11.220400 15.809500 -180.000000 56.831001 -180.000000 16.334000 -16.520000 19.079100 3.897804 -13.888573 -15.478138 0.000000 0.000000 26.642799 -20.669235 3.400293 -4.375718 0.000000 0.000000 -21.510760 4.225316 8.413673 -10.160899 0.000000 0.000000 24.253799 29.025907 -9.053518 -14.398072 0.000000 0.000000 -16.323740 
